<svg width="90" height="88" viewBox="0 0 90 88" fill="none" xmlns="http://www.w3.org/2000/svg">
<path d="M76.1631 0.616211H14.2398C12.4765 0.616211 11.0471 2.16028 11.0471 4.06499V83.9224C11.0471 85.8271 12.4765 87.3712 14.2398 87.3712H76.1631C77.9264 87.3712 79.3558 85.8271 79.3558 83.9224V4.06499C79.3558 2.16028 77.9264 0.616211 76.1631 0.616211Z" fill="white"/>
<path d="M76.1688 88H14.2397C13.241 87.9967 12.2841 87.5667 11.578 86.8039C10.8718 86.0411 10.4737 85.0075 10.4707 83.9287V4.06508C10.4737 2.98689 10.872 1.95389 11.5783 1.19207C12.2847 0.430255 13.2416 0.00164108 14.2397 0H76.1688C77.1669 0.00164108 78.1238 0.430255 78.8302 1.19207C79.5365 1.95389 79.9347 2.98689 79.9378 4.06508V83.9287C79.9348 85.0075 79.5367 86.0411 78.8305 86.8039C78.1244 87.5667 77.1675 87.9967 76.1688 88V88ZM14.2397 1.24505C13.5468 1.24505 12.8822 1.54196 12.3917 2.07064C11.9012 2.59932 11.6248 3.31659 11.6233 4.06508V83.9287C11.6248 84.6777 11.901 85.3957 12.3913 85.9253C12.8817 86.455 13.5463 86.7533 14.2397 86.7549H76.1688C76.8622 86.7533 77.5269 86.455 78.0172 85.9253C78.5075 85.3957 78.7837 84.6777 78.7852 83.9287V4.06508C78.7837 3.31659 78.5074 2.59932 78.0168 2.07064C77.5263 1.54196 76.8617 1.24505 76.1688 1.24505H14.2397Z" fill="#093F68"/>
<path d="M14.2398 0.616211H76.1689C77.0157 0.616211 77.8278 0.979563 78.4265 1.62634C79.0253 2.27311 79.3616 3.15032 79.3616 4.06499V10.0848H11.0471V4.06499C11.0471 3.15032 11.3835 2.27311 11.9822 1.62634C12.581 0.979563 13.3931 0.616211 14.2398 0.616211V0.616211Z" fill="#3498DB"/>
<path d="M79.3615 10.7136H11.047C10.8942 10.7136 10.7476 10.6481 10.6395 10.5313C10.5314 10.4146 10.4707 10.2562 10.4707 10.0911V4.06508C10.4737 2.98689 10.872 1.95389 11.5783 1.19207C12.2847 0.430255 13.2416 0.00164108 14.2397 0H76.1688C77.1669 0.00164108 78.1238 0.430255 78.8302 1.19207C79.5365 1.95389 79.9347 2.98689 79.9378 4.06508V10.0911C79.9378 10.1729 79.9229 10.2538 79.8939 10.3293C79.865 10.4049 79.8225 10.4735 79.769 10.5313C79.7155 10.5891 79.652 10.635 79.582 10.6663C79.5121 10.6975 79.4372 10.7136 79.3615 10.7136ZM11.6233 9.46859H78.7852V4.06508C78.7837 3.31659 78.5074 2.59932 78.0168 2.07064C77.5263 1.54196 76.8617 1.24505 76.1688 1.24505H14.2397C13.5468 1.24505 12.8822 1.54196 12.3917 2.07064C11.9012 2.59932 11.6248 3.31659 11.6233 4.06508V9.46859Z" fill="#093F68"/>
<path d="M16.8506 6.67952C17.6335 6.67952 18.2683 5.99388 18.2683 5.14811C18.2683 4.30233 17.6335 3.6167 16.8506 3.6167C16.0676 3.6167 15.4329 4.30233 15.4329 5.14811C15.4329 5.99388 16.0676 6.67952 16.8506 6.67952Z" fill="#093F68"/>
<path d="M20.7922 6.67952C21.5752 6.67952 22.2099 5.99388 22.2099 5.14811C22.2099 4.30233 21.5752 3.6167 20.7922 3.6167C20.0092 3.6167 19.3745 4.30233 19.3745 5.14811C19.3745 5.99388 20.0092 6.67952 20.7922 6.67952Z" fill="#093F68"/>
<path d="M24.7285 6.67952C25.5115 6.67952 26.1462 5.99388 26.1462 5.14811C26.1462 4.30233 25.5115 3.6167 24.7285 3.6167C23.9455 3.6167 23.3108 4.30233 23.3108 5.14811C23.3108 5.99388 23.9455 6.67952 24.7285 6.67952Z" fill="#093F68"/>
<path d="M34.0471 30.1299H2.16051C1.39027 30.1299 0.765869 30.8044 0.765869 31.6364V41.5034C0.765869 42.3354 1.39027 43.0099 2.16051 43.0099H34.0471C34.8174 43.0099 35.4418 42.3354 35.4418 41.5034V31.6364C35.4418 30.8044 34.8174 30.1299 34.0471 30.1299Z" fill="#FFBC0E"/>
<path d="M34.0414 43.6141H2.16054C1.64427 43.606 1.15144 43.38 0.78742 42.9844C0.423405 42.5889 0.217108 42.0552 0.212646 41.4975V31.6367C0.212644 31.0715 0.420111 30.5293 0.78957 30.1291C1.15903 29.7288 1.66033 29.5031 2.18359 29.5015H34.0414C34.5647 29.5031 35.066 29.7288 35.4354 30.1291C35.8049 30.5293 36.0124 31.0715 36.0123 31.6367V41.4975C36.0078 42.0595 35.7983 42.5969 35.4294 42.9931C35.0604 43.3893 34.5617 43.6125 34.0414 43.6141V43.6141ZM2.16054 30.7278C1.94297 30.7295 1.73483 30.824 1.58153 30.9908C1.42822 31.1575 1.34219 31.383 1.34219 31.618V41.4975C1.34219 41.7325 1.42822 41.958 1.58153 42.1248C1.73483 42.2916 1.94297 42.3861 2.16054 42.3877H34.0414C34.259 42.3861 34.4671 42.2916 34.6204 42.1248C34.7737 41.958 34.8598 41.7325 34.8598 41.4975V31.6367C34.8598 31.4017 34.7737 31.1762 34.6204 31.0094C34.4671 30.8427 34.259 30.7482 34.0414 30.7465L2.16054 30.7278Z" fill="#093F68"/>
<path d="M4.57526 36.5671C4.57353 36.1407 4.64787 35.718 4.79425 35.322C4.93155 34.9584 5.13766 34.6298 5.39936 34.3571C5.6635 34.0829 5.97749 33.8709 6.32145 33.7346C7.07751 33.4524 7.89938 33.4524 8.65545 33.7346C8.9994 33.8709 9.3134 34.0829 9.57753 34.3571C9.83924 34.6298 10.0453 34.9584 10.1826 35.322C10.4744 36.1394 10.4744 37.0446 10.1826 37.8619C10.0483 38.2273 9.84182 38.5566 9.57753 38.8269C9.3134 39.1011 8.9994 39.3131 8.65545 39.4494C7.89938 39.7316 7.07751 39.7316 6.32145 39.4494C5.97749 39.3131 5.6635 39.1011 5.39936 38.8269C5.13507 38.5566 4.92856 38.2273 4.79425 37.8619C4.64193 37.4505 4.56748 37.0102 4.57526 36.5671ZM5.80854 36.5671C5.80543 36.8241 5.84646 37.0795 5.92956 37.3204C5.99855 37.5526 6.11472 37.7653 6.26957 37.9429C6.41797 38.1135 6.59886 38.2473 6.79977 38.3351C7.24188 38.5259 7.73501 38.5259 8.17713 38.3351C8.37804 38.2473 8.55893 38.1135 8.70732 37.9429C8.86218 37.7653 8.97835 37.5526 9.04734 37.3204C9.20881 36.8355 9.20881 36.305 9.04734 35.8201C8.97598 35.5889 8.8601 35.3768 8.70732 35.1975C8.55893 35.0269 8.37804 34.8931 8.17713 34.8054C7.73353 34.623 7.24337 34.623 6.79977 34.8054C6.59886 34.8931 6.41797 35.0269 6.26957 35.1975C6.11679 35.3768 6.00091 35.5889 5.92956 35.8201C5.84742 36.059 5.80641 36.3122 5.80854 36.5671V36.5671Z" fill="#093F68"/>
<path d="M11.681 36.5671C11.6792 36.1408 11.7536 35.718 11.9 35.3221C12.0373 34.9584 12.2434 34.6298 12.5051 34.3572C12.7692 34.0829 13.0832 33.8709 13.4272 33.7346C14.1745 33.4595 14.9851 33.4595 15.7324 33.7346C16.0763 33.8709 16.3903 34.0829 16.6544 34.3572C16.9058 34.6327 17.1019 34.9611 17.2307 35.3221C17.5225 36.1394 17.5225 37.0447 17.2307 37.862C17.1049 38.2245 16.9083 38.5536 16.6544 38.8269C16.3903 39.1011 16.0763 39.3131 15.7324 39.4494C14.9851 39.7245 14.1745 39.7245 13.4272 39.4494C13.0832 39.3131 12.7692 39.1011 12.5051 38.8269C12.2408 38.5566 12.0343 38.2273 11.9 37.862C11.7477 37.4505 11.6732 37.0102 11.681 36.5671ZM12.9143 36.5671C12.9111 36.8241 12.9522 37.0795 13.0353 37.3204C13.1043 37.5527 13.2204 37.7654 13.3753 37.9429C13.5237 38.1135 13.7046 38.2473 13.9055 38.3351C14.1227 38.4327 14.356 38.4815 14.5913 38.4783C14.8283 38.4808 15.0634 38.4321 15.2828 38.3351C15.4838 38.2473 15.6646 38.1135 15.813 37.9429C15.9679 37.7654 16.0841 37.5527 16.1531 37.3204C16.3067 36.8341 16.3067 36.3064 16.1531 35.8201C16.0817 35.589 15.9658 35.3768 15.813 35.1976C15.6646 35.027 15.4838 34.8932 15.2828 34.8054C15.063 34.7105 14.8279 34.664 14.5913 34.6684C14.3564 34.6633 14.1231 34.7099 13.9055 34.8054C13.7046 34.8932 13.5237 35.027 13.3753 35.1976C13.2225 35.3768 13.1066 35.589 13.0353 35.8201C12.9453 36.0575 12.8964 36.3107 12.8912 36.5671H12.9143Z" fill="#093F68"/>
<path d="M19.075 33.6535H21.0805C21.3474 33.6509 21.6139 33.678 21.8758 33.7344C22.1083 33.7822 22.3297 33.8795 22.527 34.0208C22.7162 34.1562 22.8693 34.343 22.9707 34.5624C23.0869 34.8309 23.1422 35.1253 23.1321 35.4215C23.1398 35.7161 23.0887 36.0091 22.9823 36.2805C22.888 36.5009 22.7432 36.6916 22.5616 36.8346C22.3696 36.9752 22.1544 37.0746 21.9276 37.1272C21.6659 37.1842 21.3993 37.2114 21.1323 37.2081H20.2679V39.4865H19.075V33.6535ZM20.2679 36.1436H21.0574C21.1621 36.1442 21.2666 36.1316 21.3686 36.1062C21.462 36.088 21.5518 36.0521 21.6337 36.0004C21.7137 35.9471 21.7793 35.8719 21.8239 35.7825C21.8788 35.6786 21.9048 35.5597 21.8988 35.4401C21.9034 35.3134 21.869 35.1886 21.8009 35.0853C21.7383 34.9935 21.6549 34.9207 21.5588 34.8736C21.4534 34.8214 21.3402 34.7898 21.2246 34.7803H20.8788H20.2679V36.1436Z" fill="#093F68"/>
<path d="M27.2985 35.0793C27.1967 34.943 27.0606 34.8414 26.9067 34.7867C26.7569 34.7278 26.5992 34.6963 26.4398 34.6934C26.3487 34.6917 26.2578 34.7022 26.169 34.7245C26.0787 34.7445 25.9914 34.778 25.9097 34.8241C25.833 34.871 25.7663 34.9346 25.7137 35.0108C25.6624 35.0935 25.6362 35.1915 25.6388 35.291C25.6343 35.3699 25.6489 35.4488 25.6813 35.5198C25.7136 35.5907 25.7625 35.6513 25.8232 35.6956C25.9638 35.8012 26.1196 35.8812 26.2843 35.9322C26.4687 36.0007 26.6646 36.0691 26.8606 36.1314C27.0623 36.1997 27.2558 36.2937 27.4369 36.4115C27.6214 36.5352 27.7787 36.7009 27.8979 36.8971C28.0302 37.1443 28.0942 37.4273 28.0823 37.7126C28.0887 38.0051 28.0315 38.2951 27.9152 38.5592C27.8103 38.8021 27.6544 39.0153 27.4599 39.1818C27.2622 39.3451 27.0372 39.4656 26.7972 39.5366C26.2148 39.7033 25.6002 39.6838 25.0279 39.4806C24.7163 39.3549 24.4304 39.1646 24.1865 38.9203L25.0337 37.9118C25.1555 38.0858 25.3134 38.2266 25.4947 38.3227C25.6745 38.4163 25.8714 38.4652 26.071 38.4658C26.17 38.4657 26.2686 38.4532 26.3649 38.4285C26.4579 38.4053 26.5472 38.3675 26.63 38.3164C26.7056 38.2705 26.7706 38.2066 26.8202 38.1297C26.8691 38.0481 26.8951 37.953 26.8951 37.8558C26.8977 37.7747 26.8817 37.6942 26.8485 37.6214C26.8154 37.5486 26.766 37.4859 26.7049 37.4387C26.5623 37.3268 26.405 37.2387 26.2381 37.1772L25.6273 36.9656C25.4137 36.8971 25.2086 36.8009 25.0164 36.6792C24.8303 36.558 24.671 36.3944 24.5496 36.1999C24.4137 35.9654 24.3473 35.6918 24.3594 35.4155C24.3537 35.1304 24.4131 34.8482 24.5323 34.5937C24.6437 34.3623 24.8011 34.1603 24.9933 34.0023C25.1893 33.8383 25.4122 33.7158 25.6503 33.6413C25.901 33.5611 26.1612 33.5213 26.4226 33.523C26.7214 33.523 27.0186 33.5712 27.3043 33.6662C27.5895 33.7607 27.8528 33.9199 28.0765 34.1331L27.2985 35.0793Z" fill="#093F68"/>
<path d="M30.2207 38.7772C30.2221 38.6745 30.2416 38.5731 30.2783 38.4784C30.3131 38.3876 30.3641 38.3052 30.4283 38.2358C30.4926 38.1663 30.5689 38.1113 30.6529 38.0737C30.7389 38.0361 30.831 38.017 30.9238 38.0177C31.0185 38.017 31.1124 38.0361 31.2004 38.0737C31.2847 38.1106 31.3612 38.1657 31.4252 38.2356C31.488 38.3063 31.5388 38.3885 31.575 38.4784C31.6099 38.5735 31.6275 38.6749 31.6269 38.7772C31.6275 38.8774 31.6099 38.9768 31.575 39.0698C31.5388 39.1596 31.488 39.2418 31.4252 39.3126C31.3612 39.3825 31.2847 39.4375 31.2004 39.4744C31.1124 39.5121 31.0185 39.5311 30.9238 39.5304C30.831 39.5311 30.7389 39.5121 30.6529 39.4744C30.5689 39.4369 30.4926 39.3818 30.4283 39.3124C30.3641 39.2429 30.3131 39.1605 30.2783 39.0698C30.2416 38.9772 30.2221 38.8778 30.2207 38.7772V38.7772ZM31.4943 37.5321H30.3417V33.6538H31.4943V37.5321Z" fill="#093F68"/>
<path d="M89.4526 77.1369H41.4065V31.8607L48.3509 22.7656H89.4526V77.1369Z" fill="#3498DB"/>
<path d="M89.4527 77.7594H41.4066C41.2538 77.7594 41.1072 77.6938 40.9991 77.577C40.891 77.4603 40.8303 77.3019 40.8303 77.1368V31.8607C40.8301 31.7152 40.877 31.5742 40.9629 31.4622L47.8785 22.3672C47.9327 22.2969 48.0005 22.2404 48.0772 22.2017C48.1539 22.1629 48.2375 22.1429 48.3222 22.1431H89.4239C89.5767 22.1431 89.7233 22.2087 89.8314 22.3254C89.9395 22.4421 90.0002 22.6005 90.0002 22.7656V77.1368C90.0003 77.2967 89.9436 77.4505 89.8417 77.5664C89.7398 77.6823 89.6005 77.7514 89.4527 77.7594V77.7594ZM41.9829 76.5143H88.8764V23.3881H48.6219L41.9829 32.1034V76.5143Z" fill="#093F68"/>
<path d="M51.192 46.8575C51.0775 46.8582 50.9654 46.8221 50.87 46.7538C50.7746 46.6854 50.7003 46.5879 50.6564 46.4737C50.6125 46.3595 50.601 46.2338 50.6236 46.1126C50.6461 45.9913 50.7015 45.8801 50.7828 45.793L58.1421 37.806C58.2501 37.6901 58.3962 37.625 58.5484 37.625C58.7007 37.625 58.8467 37.6901 58.9547 37.806C59.0087 37.8639 59.0516 37.9327 59.0809 38.0086C59.1101 38.0845 59.1252 38.1658 59.1252 38.248C59.1252 38.3302 59.1101 38.4116 59.0809 38.4874C59.0516 38.5633 59.0087 38.6321 58.9547 38.69L51.6011 46.677C51.5473 46.7347 51.4834 46.7803 51.4132 46.8113C51.343 46.8423 51.2678 46.858 51.192 46.8575V46.8575Z" fill="#093F68"/>
<path d="M58.5514 46.8576C58.4752 46.8572 58.3998 46.8405 58.3295 46.8085C58.2593 46.7764 58.1956 46.7296 58.1423 46.6708L50.7829 38.6838C50.7296 38.6258 50.6873 38.5569 50.6586 38.4813C50.6299 38.4056 50.6152 38.3245 50.6155 38.2427C50.6157 38.1609 50.6309 38.08 50.6602 38.0045C50.6894 37.9291 50.7321 37.8606 50.7858 37.8029C50.8395 37.7453 50.9033 37.6997 50.9733 37.6686C51.0434 37.6376 51.1184 37.6218 51.1941 37.6221C51.2699 37.6224 51.3448 37.6388 51.4146 37.6703C51.4845 37.7019 51.5479 37.748 51.6013 37.8061L58.9548 45.793C59.0622 45.9097 59.1224 46.0675 59.1224 46.2319C59.1224 46.3964 59.0622 46.5542 58.9548 46.6708C58.8484 46.7881 58.7035 46.8552 58.5514 46.8576Z" fill="#093F68"/>
<path d="M73.8464 46.8576C73.6944 46.8552 73.5494 46.7881 73.443 46.6708C73.3356 46.5542 73.2754 46.3964 73.2754 46.2319C73.2754 46.0675 73.3356 45.9097 73.443 45.793L80.8023 37.8061C80.8557 37.748 80.9191 37.7019 80.9889 37.6703C81.0588 37.6388 81.1337 37.6224 81.2095 37.6221C81.2852 37.6218 81.3602 37.6376 81.4303 37.6686C81.5003 37.6997 81.564 37.7453 81.6178 37.8029C81.6715 37.8606 81.7142 37.9291 81.7434 38.0045C81.7727 38.08 81.7878 38.1609 81.7881 38.2427C81.7884 38.3245 81.7737 38.4056 81.745 38.4813C81.7163 38.5569 81.674 38.6258 81.6207 38.6838L74.2613 46.6708C74.2073 46.7304 74.1427 46.7776 74.0714 46.8097C74.0001 46.8418 73.9236 46.8581 73.8464 46.8576Z" fill="#093F68"/>
<path d="M81.2056 46.8574C81.1293 46.8571 81.0539 46.8404 80.9837 46.8083C80.9134 46.7763 80.8498 46.7295 80.7964 46.6707L73.4371 38.6837C73.3831 38.6258 73.3402 38.5569 73.3109 38.4811C73.2817 38.4052 73.2666 38.3239 73.2666 38.2417C73.2666 38.1595 73.2817 38.0781 73.3109 38.0023C73.3402 37.9264 73.3831 37.8576 73.4371 37.7997C73.545 37.6837 73.6911 37.6187 73.8434 37.6187C73.9956 37.6187 74.1417 37.6837 74.2496 37.7997L81.609 45.7867C81.6903 45.8737 81.7457 45.985 81.7682 46.1062C81.7907 46.2275 81.7793 46.3532 81.7354 46.4674C81.6915 46.5816 81.6171 46.6791 81.5217 46.7474C81.4264 46.8158 81.3143 46.8519 81.1998 46.8512L81.2056 46.8574Z" fill="#093F68"/>
<path d="M62.2512 55.2549H68.7922V61.4801C68.7922 62.4163 68.448 63.3141 67.8352 63.976C67.2224 64.638 66.3912 65.0098 65.5246 65.0098V65.0098C64.658 65.0098 63.8268 64.638 63.2141 63.976C62.6013 63.3141 62.257 62.4163 62.257 61.4801V55.2549H62.2512Z" fill="#F56132"/>
<path d="M65.519 65.6577C64.5 65.6561 63.5231 65.2181 62.8026 64.4397C62.0821 63.6614 61.6766 62.6062 61.675 61.5055V55.2802C61.675 55.1151 61.7358 54.9568 61.8438 54.84C61.9519 54.7233 62.0985 54.6577 62.2513 54.6577H68.7923C68.9452 54.6577 69.0918 54.7233 69.1999 54.84C69.3079 54.9568 69.3686 55.1151 69.3686 55.2802V61.5055C69.3671 62.6073 68.9609 63.6634 68.2391 64.4419C67.5173 65.2204 66.539 65.6577 65.519 65.6577V65.6577ZM62.8276 55.8779V61.4806C62.8276 62.2516 63.1112 62.9911 63.6159 63.5363C64.1206 64.0815 64.8052 64.3878 65.519 64.3878C66.2328 64.3878 66.9173 64.0815 67.422 63.5363C67.9267 62.9911 68.2103 62.2516 68.2103 61.4806V55.8779H62.8276Z" fill="#093F68"/>
<path d="M65.5189 60.7642C65.3661 60.7642 65.2195 60.6986 65.1114 60.5819C65.0033 60.4651 64.9426 60.3068 64.9426 60.1417V55.2548C64.9426 55.0897 65.0033 54.9314 65.1114 54.8147C65.2195 54.6979 65.3661 54.6323 65.5189 54.6323C65.6718 54.6323 65.8183 54.6979 65.9264 54.8147C66.0345 54.9314 66.0952 55.0897 66.0952 55.2548V60.1417C66.0952 60.2234 66.0803 60.3044 66.0514 60.3799C66.0224 60.4554 65.9799 60.5241 65.9264 60.5819C65.8729 60.6397 65.8094 60.6855 65.7395 60.7168C65.6695 60.7481 65.5946 60.7642 65.5189 60.7642Z" fill="#093F68"/>
<path d="M81.2057 55.8774H51.192C51.0392 55.8774 50.8926 55.8118 50.7845 55.695C50.6764 55.5783 50.6157 55.42 50.6157 55.2548C50.6157 55.0897 50.6764 54.9314 50.7845 54.8147C50.8926 54.6979 51.0392 54.6323 51.192 54.6323H81.2057C81.3585 54.6323 81.5051 54.6979 81.6132 54.8147C81.7213 54.9314 81.782 55.0897 81.782 55.2548C81.782 55.42 81.7213 55.5783 81.6132 55.695C81.5051 55.8118 81.3585 55.8774 81.2057 55.8774Z" fill="#093F68"/>
<path d="M45.0141 17.0507H16.5968C16.444 17.0507 16.2974 16.9851 16.1893 16.8684C16.0812 16.7516 16.0205 16.5933 16.0205 16.4282C16.0205 16.2631 16.0812 16.1047 16.1893 15.988C16.2974 15.8713 16.444 15.8057 16.5968 15.8057H45.0141C45.167 15.8057 45.3136 15.8713 45.4216 15.988C45.5297 16.1047 45.5904 16.2631 45.5904 16.4282C45.5904 16.5933 45.5297 16.7516 45.4216 16.8684C45.3136 16.9851 45.167 17.0507 45.0141 17.0507Z" fill="#DFEAEF"/>
<path d="M41.4065 31.8607H48.276L48.3509 22.7656L41.4065 31.8607Z" fill="white"/>
<path d="M48.2761 32.4834H41.4067C41.2964 32.4837 41.1884 32.4499 41.0955 32.3859C41.0025 32.3219 40.9285 32.2304 40.8822 32.1224C40.8365 32.0154 40.8198 31.8966 40.8341 31.7798C40.8483 31.663 40.893 31.553 40.9629 31.4625L47.8785 22.3674C47.9542 22.2687 48.0563 22.1977 48.1708 22.164C48.2853 22.1303 48.4066 22.1356 48.5182 22.1792C48.6298 22.2228 48.7262 22.3025 48.7943 22.4075C48.8624 22.5125 48.8988 22.6376 48.8985 22.7658L48.8236 31.8671C48.8223 32.0259 48.7649 32.1781 48.6632 32.2927C48.5614 32.4073 48.4229 32.4755 48.2761 32.4834ZM42.6284 31.2384H47.7056L47.7632 24.5151L42.6284 31.2384Z" fill="#093F68"/>
<path d="M56.9379 17.0507H51.1749C51.0221 17.0507 50.8755 16.9851 50.7674 16.8684C50.6594 16.7516 50.5986 16.5933 50.5986 16.4282C50.5986 16.2631 50.6594 16.1047 50.7674 15.988C50.8755 15.8713 51.0221 15.8057 51.1749 15.8057H56.9379C57.0908 15.8057 57.2374 15.8713 57.3454 15.988C57.4535 16.1047 57.5142 16.2631 57.5142 16.4282C57.5142 16.5933 57.4535 16.7516 57.3454 16.8684C57.2374 16.9851 57.0908 17.0507 56.9379 17.0507Z" fill="#DFEAEF"/>
<path d="M34.1162 24.7519H16.8273C16.6744 24.7519 16.5278 24.6863 16.4198 24.5696C16.3117 24.4528 16.251 24.2945 16.251 24.1294C16.251 23.9643 16.3117 23.8059 16.4198 23.6892C16.5278 23.5724 16.6744 23.5068 16.8273 23.5068H34.1162C34.2691 23.5068 34.4157 23.5724 34.5238 23.6892C34.6318 23.8059 34.6925 23.9643 34.6925 24.1294C34.6925 24.2945 34.6318 24.4528 34.5238 24.5696C34.4157 24.6863 34.2691 24.7519 34.1162 24.7519Z" fill="#DFEAEF"/>
<path d="M33.6272 52.2498H19.7115C19.3559 52.2498 19.0149 52.1533 18.7635 51.9814C18.5121 51.8094 18.3708 51.5763 18.3708 51.3332C18.3708 51.0901 18.5121 50.8569 18.7635 50.685C19.0149 50.5131 19.3559 50.4165 19.7115 50.4165H33.6272C33.9827 50.4165 34.3237 50.5131 34.5752 50.685C34.8266 50.8569 34.9678 51.0901 34.9678 51.3332C34.9678 51.5763 34.8266 51.8094 34.5752 51.9814C34.3237 52.1533 33.9827 52.2498 33.6272 52.2498V52.2498Z" fill="#DFEAEF"/>
<path d="M33.0732 58.6668H20.2655C19.763 58.6668 19.2811 58.5703 18.9258 58.3983C18.5705 58.2264 18.3708 57.9933 18.3708 57.7502C18.3708 57.507 18.5705 57.2739 18.9258 57.102C19.2811 56.9301 19.763 56.8335 20.2655 56.8335H33.0732C33.5757 56.8335 34.0576 56.9301 34.4129 57.102C34.7682 57.2739 34.9678 57.507 34.9678 57.7502C34.9678 57.9933 34.7682 58.2264 34.4129 58.3983C34.0576 58.5703 33.5757 58.6668 33.0732 58.6668Z" fill="#DFEAEF"/>
<path d="M33.0732 65.0833H20.2655C19.763 65.0833 19.2811 64.9868 18.9258 64.8148C18.5705 64.6429 18.3708 64.4098 18.3708 64.1667C18.3708 63.9236 18.5705 63.6904 18.9258 63.5185C19.2811 63.3466 19.763 63.25 20.2655 63.25H33.0732C33.5757 63.25 34.0576 63.3466 34.4129 63.5185C34.7682 63.6904 34.9678 63.9236 34.9678 64.1667C34.9678 64.4098 34.7682 64.6429 34.4129 64.8148C34.0576 64.9868 33.5757 65.0833 33.0732 65.0833Z" fill="#DFEAEF"/>
<path d="M71.9678 17.0507H62.2513C62.0985 17.0507 61.9519 16.9851 61.8438 16.8684C61.7358 16.7516 61.675 16.5933 61.675 16.4282C61.675 16.2631 61.7358 16.1047 61.8438 15.988C61.9519 15.8713 62.0985 15.8057 62.2513 15.8057H71.9678C72.1206 15.8057 72.2672 15.8713 72.3753 15.988C72.4833 16.1047 72.5441 16.2631 72.5441 16.4282C72.5441 16.5933 72.4833 16.7516 72.3753 16.8684C72.2672 16.9851 72.1206 17.0507 71.9678 17.0507Z" fill="#DFEAEF"/>
</svg>
