<svg width="199" height="136" viewBox="0 0 199 136" fill="none" xmlns="http://www.w3.org/2000/svg">
<path d="M30.0549 23.6836H163.463C166.11 23.6836 168.649 24.8318 170.521 26.8756C172.392 28.9194 173.444 31.6914 173.444 34.5818V123.548H20.0532V34.5818C20.0532 33.1487 20.3121 31.7297 20.815 30.406C21.3178 29.0823 22.0549 27.8799 22.9839 26.8676C23.9129 25.8553 25.0156 25.053 26.229 24.5067C27.4423 23.9603 28.7424 23.6806 30.0549 23.6836V23.6836Z" fill="white"/>
<path d="M173.444 123.889H20.0531C19.9702 123.889 19.8908 123.853 19.8322 123.789C19.7736 123.725 19.7407 123.638 19.7407 123.548V34.5813C19.7426 31.5991 20.8283 28.7396 22.7596 26.6308C24.6908 24.5221 27.3096 23.3365 30.0408 23.3345H163.463C166.194 23.3385 168.811 24.5247 170.742 26.633C172.673 28.7413 173.759 31.5997 173.763 34.5813V123.548C173.761 123.639 173.727 123.726 173.667 123.79C173.607 123.853 173.527 123.889 173.444 123.889V123.889ZM20.3862 123.199H173.125V34.5813C173.123 31.784 172.104 29.1018 170.293 27.1238C168.481 25.1458 166.025 24.0337 163.463 24.0317H30.0547C27.4922 24.0337 25.0351 25.1456 23.2225 27.1234C21.4099 29.1012 20.3899 31.7833 20.3862 34.5813V123.199Z" fill="#231F20"/>
<path d="M163.859 32.6338H29.6592V123.548H163.859V32.6338Z" fill="#3498DB"/>
<path d="M186.229 123.935H7.28232C7.2286 123.951 7.17206 123.954 7.11714 123.943C7.06223 123.932 7.01043 123.907 6.96583 123.87C6.92124 123.834 6.88506 123.786 6.86014 123.731C6.83523 123.677 6.82227 123.617 6.82227 123.556C6.82227 123.495 6.83523 123.435 6.86014 123.38C6.88506 123.325 6.92124 123.278 6.96583 123.241C7.01043 123.204 7.06223 123.179 7.11714 123.168C7.17206 123.157 7.2286 123.16 7.28232 123.177H186.229C186.283 123.16 186.339 123.157 186.394 123.168C186.449 123.179 186.501 123.204 186.545 123.241C186.59 123.278 186.626 123.325 186.651 123.38C186.676 123.435 186.689 123.495 186.689 123.556C186.689 123.617 186.676 123.677 186.651 123.731C186.626 123.786 186.59 123.834 186.545 123.87C186.501 123.907 186.449 123.932 186.394 123.943C186.339 123.954 186.283 123.951 186.229 123.935V123.935Z" fill="#231F20"/>
<path d="M4.11733 123.548H189.394C189.394 126.764 188.224 129.848 186.141 132.122C184.059 134.396 181.234 135.674 178.289 135.674H15.1809C12.2356 135.674 9.41095 134.396 7.32832 132.122C5.24569 129.848 4.07568 126.764 4.07568 123.548H4.11733Z" fill="white"/>
<path d="M178.31 136H15.2019C12.1798 135.994 9.28314 134.68 7.14683 132.346C5.01052 130.012 3.80885 126.848 3.80518 123.548C3.80516 123.457 3.83784 123.37 3.89622 123.304C3.9546 123.239 4.03404 123.202 4.11751 123.2H189.394C189.478 123.202 189.558 123.239 189.618 123.304C189.677 123.369 189.712 123.456 189.713 123.548C189.71 126.85 188.507 130.014 186.369 132.349C184.231 134.683 181.333 135.996 178.31 136V136ZM4.44372 123.874C4.52848 126.931 5.69954 129.832 7.70889 131.962C9.71824 134.092 12.4081 135.285 15.2088 135.288H178.317C181.117 135.283 183.806 134.09 185.815 131.96C187.824 129.83 188.995 126.93 189.082 123.874H4.44372Z" fill="#231F20"/>
<path d="M111.782 123.548H81.7358V126.572H111.782V123.548Z" fill="black"/>
<path d="M35.9338 41.6903C37.1719 41.6903 38.1756 40.5943 38.1756 39.2424C38.1756 37.8904 37.1719 36.7944 35.9338 36.7944C34.6956 36.7944 33.6919 37.8904 33.6919 39.2424C33.6919 40.5943 34.6956 41.6903 35.9338 41.6903Z" fill="#231F20"/>
<path d="M43.527 41.6903C44.7652 41.6903 45.7689 40.5943 45.7689 39.2424C45.7689 37.8904 44.7652 36.7944 43.527 36.7944C42.2889 36.7944 41.2852 37.8904 41.2852 39.2424C41.2852 40.5943 42.2889 41.6903 43.527 41.6903Z" fill="white"/>
<path d="M51.1271 41.6903C52.3653 41.6903 53.369 40.5943 53.369 39.2424C53.369 37.8904 52.3653 36.7944 51.1271 36.7944C49.889 36.7944 48.8853 37.8904 48.8853 39.2424C48.8853 40.5943 49.889 41.6903 51.1271 41.6903Z" fill="white"/>
<path d="M72.5533 76.6886C72.4026 76.6897 72.2532 76.6581 72.1138 76.5957C71.9744 76.5332 71.8478 76.4412 71.7412 76.3249C71.5284 76.0882 71.4092 75.7698 71.4092 75.4381C71.4092 75.1065 71.5284 74.7881 71.7412 74.5514L80.4449 65.0477C80.6603 64.8136 80.952 64.6824 81.256 64.6831C81.5599 64.6838 81.8511 64.8163 82.0656 65.0515C82.28 65.2867 82.4001 65.6052 82.3995 65.9371C82.3988 66.269 82.2775 66.587 82.0621 66.8211L73.3584 76.3249C73.2526 76.4403 73.1271 76.5318 72.989 76.5942C72.8508 76.6566 72.7028 76.6887 72.5533 76.6886V76.6886Z" fill="white"/>
<path d="M81.257 76.6886C80.9529 76.6891 80.661 76.5584 80.4449 76.3249L71.7412 66.8211C71.5258 66.587 71.4045 66.269 71.4038 65.9371C71.4032 65.6052 71.5233 65.2867 71.7377 65.0515C71.9522 64.8163 72.2434 64.6838 72.5473 64.6831C72.8513 64.6824 73.143 64.8136 73.3584 65.0477L82.0621 74.5514C82.2228 74.7259 82.3324 74.9484 82.3772 75.191C82.422 75.4335 82.3999 75.6851 82.3137 75.9139C82.2275 76.1427 82.0811 76.3384 81.893 76.4763C81.7049 76.6142 81.4835 76.6881 81.257 76.6886V76.6886Z" fill="white"/>
<path d="M112.296 76.6886C112.069 76.6896 111.846 76.6168 111.657 76.4795C111.468 76.3421 111.32 76.1465 111.233 75.9174C111.146 75.6883 111.124 75.436 111.168 75.1928C111.213 74.9496 111.323 74.7263 111.484 74.5514L120.187 65.0477C120.294 64.9318 120.421 64.8399 120.56 64.7773C120.699 64.7148 120.848 64.6828 120.998 64.6831C121.149 64.6835 121.298 64.7162 121.437 64.7794C121.576 64.8426 121.702 64.9351 121.808 65.0515C121.914 65.1679 121.998 65.3061 122.056 65.458C122.113 65.61 122.142 65.7728 122.142 65.9371C122.142 66.1014 122.112 66.2641 122.054 66.4158C121.996 66.5674 121.911 66.7052 121.805 66.8211L113.101 76.3249C112.995 76.4402 112.87 76.5318 112.731 76.5942C112.593 76.6566 112.445 76.6887 112.296 76.6886V76.6886Z" fill="white"/>
<path d="M120.965 76.6886C120.814 76.6897 120.665 76.6581 120.526 76.5957C120.386 76.5332 120.259 76.4412 120.153 76.3249L111.449 66.8211C111.343 66.7052 111.258 66.5674 111.2 66.4158C111.142 66.2641 111.112 66.1014 111.112 65.9371C111.111 65.7728 111.141 65.61 111.198 65.458C111.255 65.3061 111.34 65.1679 111.446 65.0515C111.552 64.9351 111.678 64.8426 111.817 64.7794C111.956 64.7162 112.105 64.6835 112.255 64.6831C112.406 64.6828 112.555 64.7148 112.694 64.7773C112.833 64.8399 112.96 64.9318 113.066 65.0477L121.77 74.5514C121.931 74.7259 122.04 74.9484 122.085 75.191C122.13 75.4335 122.108 75.6851 122.022 75.9139C121.936 76.1427 121.789 76.3384 121.601 76.4763C121.413 76.6142 121.192 76.6881 120.965 76.6886Z" fill="white"/>
<path d="M163.762 45.6241H29.7494C29.6573 45.6241 29.5691 45.5842 29.504 45.5131C29.4389 45.442 29.4023 45.3456 29.4023 45.2451C29.4023 45.1446 29.4389 45.0483 29.504 44.9772C29.5691 44.9061 29.6573 44.8662 29.7494 44.8662H163.762C163.854 44.8662 163.942 44.9061 164.007 44.9772C164.072 45.0483 164.109 45.1446 164.109 45.2451C164.109 45.3456 164.072 45.442 164.007 45.5131C163.942 45.5842 163.854 45.6241 163.762 45.6241Z" fill="white"/>
<path d="M57.1797 98.0986C56.8321 98.1464 56.4808 98.0488 56.1962 97.8256C55.9117 97.6023 55.715 97.2699 55.6457 96.8949C55.5763 96.5199 55.6393 96.1301 55.8221 95.8038C56.005 95.4774 56.294 95.2386 56.6314 95.1353C69.3202 89.2427 82.9672 86.2056 96.7559 86.2056C110.545 86.2056 124.192 89.2427 136.88 95.1353C137.051 95.2139 137.206 95.3285 137.337 95.4726C137.467 95.6166 137.57 95.7873 137.64 95.9749C137.71 96.1624 137.745 96.3632 137.744 96.5657C137.743 96.7682 137.705 96.9684 137.633 97.155C137.561 97.3416 137.457 97.5109 137.325 97.6533C137.193 97.7956 137.036 97.9081 136.865 97.9845C136.693 98.0608 136.509 98.0995 136.324 98.0983C136.138 98.097 135.955 98.056 135.784 97.9773C123.441 92.2478 110.167 89.2947 96.7559 89.2947C83.3443 89.2947 70.0705 92.2478 57.728 97.9773C57.5537 98.0546 57.3678 98.0957 57.1797 98.0986V98.0986Z" fill="white"/>
<path d="M194.669 52.2324H151.997C149.801 52.2324 148.02 54.1767 148.02 56.575V72.8011C148.02 75.1994 149.801 77.1437 151.997 77.1437H194.669C196.865 77.1437 198.646 75.1994 198.646 72.8011V56.575C198.646 54.1767 196.865 52.2324 194.669 52.2324Z" fill="white"/>
<path d="M194.676 77.5151H151.997C150.851 77.5131 149.752 77.015 148.941 76.13C148.131 75.2449 147.675 74.0451 147.673 72.7935V56.5751C147.675 55.3234 148.131 54.1237 148.941 53.2386C149.752 52.3536 150.851 51.8555 151.997 51.8535H194.676C195.822 51.8555 196.921 52.3536 197.731 53.2386C198.542 54.1237 198.998 55.3234 199 56.5751V72.7935C198.998 74.0451 198.542 75.2449 197.731 76.13C196.921 77.015 195.822 77.5131 194.676 77.5151V77.5151ZM151.997 52.6114C151.034 52.6114 150.111 53.029 149.43 53.7723C148.749 54.5157 148.367 55.5238 148.367 56.5751V72.7935C148.367 73.8448 148.749 74.8529 149.43 75.5963C150.111 76.3396 151.034 76.7572 151.997 76.7572H194.676C195.638 76.7572 196.562 76.3396 197.242 75.5963C197.923 74.8529 198.306 73.8448 198.306 72.7935V56.5751C198.306 55.5238 197.923 54.5157 197.242 53.7723C196.562 53.029 195.638 52.6114 194.676 52.6114H151.997Z" fill="#D1D3D4"/>
<path d="M163.658 68.4284H157.688V66.1548L162.228 58.8564H166.156V66.1548H167.593V68.4284H166.156V70.5125H163.658V68.4284ZM163.658 66.1548V60.592L160.187 66.1548H163.658Z" fill="black"/>
<path d="M168.287 64.6841C168.287 60.8947 170.369 58.6211 173.382 58.6211C176.394 58.6211 178.455 60.8947 178.455 64.6841C178.455 68.4734 176.373 70.747 173.382 70.747C170.39 70.747 168.287 68.4659 168.287 64.6841ZM175.977 64.6841C175.977 62.1149 174.992 60.8492 173.382 60.8492C171.771 60.8492 170.765 62.1149 170.765 64.6841C170.765 67.2533 171.751 68.5189 173.382 68.5189C175.013 68.5189 175.977 67.2533 175.977 64.6841Z" fill="black"/>
<path d="M185.07 68.4284H179.073V66.1548L183.612 58.8564H187.547V66.1548H188.984V68.4284H187.547V70.5125H185.07V68.4284ZM185.07 66.1548V60.592H185.035L181.564 66.1548H185.07Z" fill="black"/>
<path d="M22.1911 24.0622C22.1181 24.0629 22.047 24.0361 21.9899 23.9864C21.9166 23.9261 21.8678 23.837 21.8535 23.738C21.8393 23.6391 21.8608 23.5379 21.9135 23.4559C23.1559 21.5991 24.6898 18.9087 23.5446 16.7715C23.5093 16.703 23.4699 16.6372 23.4266 16.5744C22.1647 18.2388 20.6646 19.6694 18.9845 20.811C18.0955 21.5135 17.002 21.837 15.9097 21.7204C15.6778 21.6691 15.4578 21.5666 15.2633 21.4194C15.0688 21.2722 14.9038 21.0832 14.7784 20.864C14.6191 20.5502 14.5202 20.204 14.488 19.8469C14.4558 19.4898 14.4908 19.1292 14.591 18.7874C14.6483 18.5441 14.7226 18.306 14.8131 18.075C13.3532 19.6695 11.7025 21.041 9.90599 22.1524C9.5177 22.4252 9.06262 22.5626 8.60113 22.5465C8.23038 22.4624 7.89463 22.2493 7.64431 21.9391C7.394 21.6288 7.24264 21.2383 7.21298 20.8261C7.17415 20.0883 7.318 19.3527 7.62942 18.6965C8.85072 15.8122 10.7444 13.3287 13.1208 11.4946C15.4973 9.66052 18.2732 8.54007 21.1708 8.24543C21.6872 6.83041 21.758 5.26807 21.3721 3.8043C21.183 3.09149 20.8278 2.44443 20.3412 1.92637C19.8546 1.4083 19.2532 1.03695 18.5958 0.848594C17.3409 0.685245 16.0705 0.949982 14.9589 1.60647C8.97564 4.57989 4.08513 9.66893 1.07735 16.0515C0.844094 16.4528 0.719013 16.9177 0.716428 17.393C0.727875 17.5001 0.758971 17.6037 0.807863 17.6974C0.856755 17.7912 0.922442 17.8732 1.001 17.9386C1.04144 17.977 1.08921 18.0051 1.14083 18.0208C1.19246 18.0366 1.24664 18.0396 1.29945 18.0296C1.39149 18.0105 1.48671 18.0321 1.56416 18.0896C1.64161 18.1472 1.69494 18.236 1.71243 18.3365C1.72992 18.437 1.71012 18.541 1.65741 18.6255C1.60469 18.7101 1.52336 18.7683 1.43132 18.7874C1.27959 18.825 1.1222 18.8261 0.970023 18.7908C0.817843 18.7554 0.674489 18.6845 0.549851 18.5828C0.246602 18.3215 0.0496536 17.9403 0.00153036 17.5218C-0.0171225 16.8964 0.135091 16.279 0.438796 15.7484C3.52342 9.20424 8.53874 3.98693 14.6743 0.939537C15.882 0.348397 17.3048 -0.227585 18.7208 0.090721C19.5085 0.299929 20.2321 0.731355 20.8192 1.34183C21.4064 1.95231 21.8363 2.72044 22.0662 3.56936C22.4633 5.08886 22.4123 6.70629 21.9204 8.19238C22.3785 8.19238 22.8366 8.19238 23.3086 8.19238C23.7546 8.19533 24.1931 8.31763 24.5857 8.54858C25.488 9.16246 25.5366 10.466 25.488 11.186C25.3461 12.8932 24.785 14.527 23.8639 15.9151C23.9688 16.0561 24.064 16.2056 24.1484 16.3622C25.4949 18.8632 23.843 21.8492 22.4826 23.8803C22.4526 23.9356 22.41 23.9814 22.3589 24.0133C22.3078 24.0452 22.25 24.062 22.1911 24.0622ZM20.8654 9.03362C18.1494 9.37587 15.5597 10.4761 13.3461 12.2282C11.1324 13.9804 9.36917 16.3254 8.22633 19.0375C7.97113 19.5724 7.84681 20.1703 7.86541 20.7731C7.87883 21.0207 7.96512 21.257 8.11143 21.4468C8.25775 21.6367 8.45628 21.7698 8.67748 21.8265C8.99885 21.8234 9.31242 21.7181 9.57978 21.5234C12.4324 19.8333 14.7229 17.2111 16.93 14.7025C18.346 12.9746 19.9354 11.186 20.8654 9.03362ZM20.2894 15.0966C19.9351 15.0954 19.5816 15.1335 19.2344 15.2103C18.3199 15.3887 17.4671 15.8357 16.7677 16.5033C16.0682 17.1709 15.5485 18.0339 15.2643 18.9996C15.1885 19.2472 15.1586 19.5087 15.1765 19.769C15.1944 20.0292 15.2596 20.283 15.3684 20.5154C15.444 20.6501 15.545 20.7657 15.6646 20.8546C15.7843 20.9435 15.9199 21.0035 16.0624 21.0307C16.9666 21.1117 17.8681 20.8435 18.6097 20.2729C20.2658 19.1251 21.7343 17.6829 22.9546 16.006C22.1931 15.3635 21.2513 15.0287 20.2894 15.0587V15.0966ZM20.2894 14.3387C21.4031 14.3051 22.4935 14.6904 23.378 15.4301C24.1758 14.174 24.6548 12.7097 24.7662 11.186C24.7662 10.7464 24.7662 9.67023 24.1901 9.2534C23.8958 9.08972 23.5695 9.0065 23.2392 9.01088C22.7052 8.97678 22.1699 8.97678 21.6359 9.01088C20.7127 11.383 19.04 13.3308 17.5339 15.0739C18.024 14.812 18.5414 14.6161 19.0747 14.4903C19.4679 14.382 19.8703 14.3185 20.2755 14.3008L20.2894 14.3387Z" fill="#D1D3D4"/>
</svg>
